<svg fill="none" height="11" viewBox="0 0 7 11" width="7" xmlns="http://www.w3.org/2000/svg"><path d="m6.33984 5.29102c0-.14649-.05859-.28125-.16992-.38672l-4.64062-4.546878c-.10547-.09961-.23438-.152344-.38672-.152344-.29883 0-.533205.228516-.533205.533203 0 .146485.058594.281249.152344.380859l4.265621 4.17188-4.265621 4.17187c-.09375.09961-.152344.22852-.152344.38086 0 .30465.234375.53325.533205.53325.15234 0 .28125-.0528.38672-.1582l4.64062-4.54107c.11133-.11132.16992-.24023.16992-.38671z" fill="#c4c4c6"/></svg>