<svg fill="none" height="14" viewBox="0 0 11 14" width="11" xmlns="http://www.w3.org/2000/svg"><path d="m2.69531 13.2539h6.22266c1.21293 0 1.81643-.6152 1.81643-1.834v-5.32029c0-.75586-.0879-1.08399-.5567-1.56445l-3.22848-3.28711c-.44531-.457034-.81445-.556644-1.4707-.556644h-2.78321c-1.20703 0-1.816404.621094-1.816404 1.839844v8.88865c0 1.2246.603514 1.834 1.816404 1.834zm.04102-.9434c-.60352 0-.91406-.3222-.91406-.9082v-8.85347c0-.58008.31054-.91406.91992-.91406h2.60742v3.40429c0 .73828.36914 1.10156 1.10156 1.10156h3.33985v5.26168c0 .586-.31055.9082-.91993.9082zm3.82031-7.05464c-.23437 0-.32226-.09375-.32226-.32813v-3.11132l3.375 3.43945zm1.40625 2.50195h-4.44727c-.21093 0-.36914.15821-.36914.35742 0 .20508.15821.36329.36914.36329h4.44727c.20508 0 .35742-.15821.35742-.36329 0-.19921-.15234-.35742-.35742-.35742zm0 2.04492h-4.44727c-.21093 0-.36914.16407-.36914.36917 0 .1992.15821.3515.36914.3515h4.44727c.20508 0 .35742-.1523.35742-.3515 0-.2051-.15234-.36917-.35742-.36917z" fill="#000"/></svg>