<svg fill="none" height="13" viewBox="0 0 13 13" width="13" xmlns="http://www.w3.org/2000/svg"><path d="m6.02539 12.7461c3.26953 0 5.97661-2.7129 5.97661-5.97657 0-3.26953-2.71294-5.976561-5.98247-5.976561-3.26367 0-5.9707019 2.707031-5.9707019 5.976561 0 3.26367 2.7128919 5.97657 5.9765619 5.97657zm0-.9961c-2.76562 0-4.97461-2.21484-4.97461-4.98047 0-2.76562 2.20313-4.98047 4.96875-4.98047 2.76563 0 4.98637 2.21485 4.98637 4.98047 0 2.76563-2.21488 4.98047-4.98051 4.98047zm0-7.96289c-.25195 0-.43945.18164-.43945.43945v2.92969l.04687 1.23633-.58593-.70313-.69727-.70312c-.08203-.08203-.1875-.12891-.31055-.12891-.24023 0-.42187.18164-.42187.42188 0 .12304.03515.22851.11133.30468l1.95703 1.94532c.11718.11718.21679.16992.33984.16992.12891 0 .23438-.0586.3457-.16992l1.95118-1.94532c.07617-.07617.12304-.18164.12304-.30468 0-.24024-.1875-.42188-.42773-.42188-.12891 0-.23438.04102-.31055.12891l-.69141.70312-.59765.70899.04687-1.24219v-2.92969c0-.25781-.18164-.43945-.43945-.43945z" fill="#888"/></svg>