<svg fill="none" height="7" viewBox="0 0 13 7" width="13" xmlns="http://www.w3.org/2000/svg"><path d="m.933594 1.66602h10.968706c.2461 0 .4454-.19336.4454-.43946 0-.246091-.1993-.44531-.4454-.44531h-10.968706c-.246094 0-.439453.199219-.439453.44531 0 .2461.193359.43946.439453.43946zm0 2.55468h10.968706c.2461 0 .4454-.19336.4454-.43945 0-.25195-.1993-.45117-.4454-.45117h-10.968706c-.246094 0-.439453.19922-.439453.45117 0 .24609.193359.43945.439453.43945zm0 2.56055h10.968706c.2461 0 .4454-.19922.4454-.45117 0-.2461-.1993-.43946-.4454-.43946h-10.968706c-.246094 0-.439453.19336-.439453.43946 0 .25195.193359.45117.439453.45117z" fill="#000"/></svg>