<svg fill="none" height="1813" viewBox="0 0 1813 1813" width="1813" xmlns="http://www.w3.org/2000/svg"><g fill="#000"><path d="m1015.56 139.776c77.72-77.7192 116.58-116.5789 161.52-130.79266 37.87-11.97779 78.52-11.97779 116.39 0 44.95 14.21376 83.81 53.07346 161.52 130.79266l218.18 218.171c77.71 77.719 116.57 116.579 130.79 161.522 11.98 37.874 11.98 78.521 0 116.394-14.22 44.943-53.08 83.803-130.79 161.522l-875.785 875.785c-77.719 77.71-116.579 116.57-161.522 130.79-37.873 11.98-78.52 11.98-116.394 0-44.943-14.22-83.803-53.08-161.522-130.79l-218.171-218.18c-77.7192-77.71-116.5789-116.57-130.79266-161.52-11.97779-37.87-11.97779-78.52 0-116.39 14.21376-44.94 53.07346-83.8 130.79266-161.52z"/><path d="m1673.17 1015.56c77.71 77.72 116.57 116.58 130.79 161.52 11.98 37.87 11.98 78.52 0 116.39-14.22 44.95-53.08 83.81-130.79 161.52l-218.18 218.18c-77.71 77.71-116.57 116.57-161.52 130.79-37.87 11.98-78.52 11.98-116.39 0-44.94-14.22-83.8-53.08-161.52-130.79l-875.784-875.785c-77.7191-77.719-116.5788-116.579-130.79253-161.522-11.97778-37.873-11.97778-78.52.00001-116.394 14.21372-44.943 53.07342-83.803 130.79252-161.522l218.171-218.171c77.719-77.7192 116.579-116.5789 161.522-130.79261 37.874-11.97779 78.521-11.97779 116.394.00001 44.944 14.2138 83.803 53.0734 161.523 130.7926z"/></g></svg>