<svg fill="none" height="11" viewBox="0 0 15 11" width="15" xmlns="http://www.w3.org/2000/svg"><path d="m2.33398 10.7793h10.13672c1.2305 0 1.8398-.6094 1.8398-1.81641v-3.46875c0-.52734-.0703-.79102-.3339-1.11328l-2.0215-2.50195c-.6856-.84375-.9903-1.101566-2.03322-1.101566h-5.03907c-1.04297 0-1.34179.257816-2.02734 1.101566l-2.027345 2.50195c-.257813.32226-.333984.58594-.333984 1.11328v3.46875c0 1.21291.615239 1.81641 1.839839 1.81641zm5.06836-3.74414c-.82617 0-1.35937-.72071-1.35937-1.40039v-.01758c0-.2461-.14649-.47461-.45117-.47461h-3.86133c-.19336 0-.23438-.16992-.13477-.29297l2.17383-2.74219c.28711-.36328.61524-.50976 1.04297-.50976h5.17969c.42771 0 .75581.14648 1.04301.50976l2.1796 2.74219c.0938.12305.0586.29297-.1347.29297h-3.86721c-.30469 0-.44531.22851-.44531.47461v.01758c0 .67968-.5332 1.40039-1.36524 1.40039zm-5.05664 2.80078c-.58593 0-.9082-.31055-.9082-.91992v-2.91797h3.71484c.14063 1.0957 1.06055 1.90429 2.25 1.90429 1.18946 0 2.10938-.81445 2.25-1.90429h3.71486v2.91797c0 .60937-.3281.91992-.9082.91992z" fill="#000"/></svg>