<svg fill="none" height="15" viewBox="0 0 11 15" width="11" xmlns="http://www.w3.org/2000/svg"><path d="m.494141 12.2168c0 1.2246.603519 1.834 1.816409 1.834h6.22265c1.21289 0 1.8164-.6094 1.8164-1.834v-8.88868c0-1.21874-.60351-1.83984-1.8164-1.83984h-2.24414l-.05273-.22851c-.05274-.20508-.22852-.339848-.44531-.339848h-.73829c-.21679 0-.39257.134768-.44531.339848l-.05273.22851h-2.24414c-1.21289 0-1.816409.6211-1.816409 1.83984zm.943359-.0176v-8.8535c0-.58593.31055-.91406.91992-.91406h1.98047l-.28125 1.23047c-.03516.16406-.05273.32812-.05273.49219 0 .72656.38671 1.20703 1.05468 1.33008v1.4707h-1.01953c-.20508 0-.36328.15234-.36328.35156 0 .20508.1582.36914.36328.36914h1.01953v.86719h-1.01953c-.20508 0-.36328.15234-.36328.35156 0 .20508.1582.36914.36328.36914h1.01953v.86723h-1.01953c-.20508 0-.36328.1523-.36328.3515 0 .2051.1582.3692.36328.3692h1.01953v.8672h-1.01953c-.20508 0-.36328.1582-.36328.3574 0 .205.1582.3633.36328.3633h1.01953v.6679h-2.70117c-.60937 0-.91992-.3222-.91992-.9082zm5.36719-.5566c.20508 0 .36328-.1582.36328-.3633 0-.1992-.1582-.3574-.36328-.3574h-1.01953v-.8672h1.01953c.20508 0 .36328-.15822.36328-.36329 0-.19922-.1582-.35743-.36328-.35743h-1.01953v-.86718h1.01953c.20508 0 .36328-.15821.36328-.36328 0-.19922-.1582-.35743-.36328-.35743h-1.01953v-.86718h1.01953c.20508 0 .36328-.15821.36328-.36329 0-.19921-.1582-.35742-.36328-.35742h-1.01953v-.67382c.66796-.12305 1.05468-.60352 1.05468-1.33008 0-.16407-.01757-.32813-.05273-.49219l-.28125-1.23047h1.98047c.60937 0 .91992.32813.91992.91406v8.8535c0 .586-.31055.9082-.91992.9082h-2.70117v-1.4648zm-1.38281-6.90237c-.36329 0-.63868-.28125-.63868-.64453 0-.35742.28125-.63867.63868-.63867.35742 0 .63867.28125.63867.63867 0 .36328-.26953.64453-.63867.64453z" fill="#000"/></svg>